<mxfile host="app.diagrams.net" modified="2022-05-19T06:31:42.099Z" agent="5.0 (Macintosh; Intel Mac OS X 10_15_7) AppleWebKit/605.1.15 (KHTML, like Gecko) Version/15.4 Safari/605.1.15" etag="mYwvMxmLyWTqh0lXSyQz" version="18.0.7" type="github">
  <diagram id="BETZ9vmd9bdqiznLejoI" name="Page-1">
    <mxGraphModel dx="1083" dy="723" grid="1" gridSize="10" guides="1" tooltips="1" connect="1" arrows="1" fold="1" page="1" pageScale="1" pageWidth="827" pageHeight="1169" math="0" shadow="0">
      <root>
        <mxCell id="0" />
        <mxCell id="1" parent="0" />
        <mxCell id="4NK0Ishuy7uq4fyJAxaH-2" value="" style="swimlane;fontFamily=Helvetica;fontSize=21;startSize=23;fontStyle=0" parent="1" vertex="1">
          <mxGeometry x="40" y="39" width="360" height="380" as="geometry" />
        </mxCell>
        <mxCell id="4NK0Ishuy7uq4fyJAxaH-9" value="&lt;font&gt;&lt;font style=&quot;font-size: 15px;&quot;&gt;システム&lt;/font&gt;&lt;/font&gt;" style="text;html=1;align=center;verticalAlign=middle;resizable=0;points=[];autosize=1;strokeColor=none;fillColor=none;fontSize=21;fontFamily=Helvetica;" parent="4NK0Ishuy7uq4fyJAxaH-2" vertex="1">
          <mxGeometry x="50" y="-5" width="80" height="30" as="geometry" />
        </mxCell>
        <mxCell id="4NK0Ishuy7uq4fyJAxaH-23" value="" style="edgeStyle=orthogonalEdgeStyle;rounded=0;orthogonalLoop=1;jettySize=auto;html=1;fontFamily=Helvetica;fontSize=11;" parent="4NK0Ishuy7uq4fyJAxaH-2" source="4NK0Ishuy7uq4fyJAxaH-10" target="4NK0Ishuy7uq4fyJAxaH-15" edge="1">
          <mxGeometry relative="1" as="geometry" />
        </mxCell>
        <mxCell id="4NK0Ishuy7uq4fyJAxaH-10" value="&lt;font style=&quot;font-size: 11px;&quot;&gt;ユーザー名と&lt;br&gt;パスワードを入力&lt;/font&gt;" style="rounded=0;whiteSpace=wrap;html=1;fontFamily=Helvetica;fontSize=18;" parent="4NK0Ishuy7uq4fyJAxaH-2" vertex="1">
          <mxGeometry x="201" y="100" width="120" height="40" as="geometry" />
        </mxCell>
        <mxCell id="4NK0Ishuy7uq4fyJAxaH-18" value="" style="edgeStyle=orthogonalEdgeStyle;rounded=0;orthogonalLoop=1;jettySize=auto;html=1;fontFamily=Helvetica;fontSize=18;entryX=0.5;entryY=0;entryDx=0;entryDy=0;" parent="4NK0Ishuy7uq4fyJAxaH-2" target="4NK0Ishuy7uq4fyJAxaH-10" edge="1">
          <mxGeometry relative="1" as="geometry">
            <mxPoint x="264" y="70" as="sourcePoint" />
          </mxGeometry>
        </mxCell>
        <mxCell id="4NK0Ishuy7uq4fyJAxaH-31" value="" style="edgeStyle=orthogonalEdgeStyle;rounded=0;orthogonalLoop=1;jettySize=auto;html=1;fontFamily=Helvetica;fontSize=15;" parent="4NK0Ishuy7uq4fyJAxaH-2" source="4NK0Ishuy7uq4fyJAxaH-12" edge="1">
          <mxGeometry relative="1" as="geometry">
            <mxPoint x="80" y="260" as="targetPoint" />
          </mxGeometry>
        </mxCell>
        <mxCell id="4NK0Ishuy7uq4fyJAxaH-12" value="&lt;font style=&quot;font-size: 15px;&quot;&gt;データを確認&lt;/font&gt;" style="html=1;fontFamily=Helvetica;fontSize=18;" parent="4NK0Ishuy7uq4fyJAxaH-2" vertex="1">
          <mxGeometry x="20" y="180" width="120" height="40" as="geometry" />
        </mxCell>
        <mxCell id="4NK0Ishuy7uq4fyJAxaH-39" value="" style="edgeStyle=orthogonalEdgeStyle;rounded=0;orthogonalLoop=1;jettySize=auto;html=1;fontFamily=Helvetica;fontSize=12;" parent="4NK0Ishuy7uq4fyJAxaH-2" source="4NK0Ishuy7uq4fyJAxaH-13" edge="1">
          <mxGeometry relative="1" as="geometry">
            <mxPoint x="264.5" y="340" as="targetPoint" />
            <Array as="points">
              <mxPoint x="265" y="318" />
            </Array>
          </mxGeometry>
        </mxCell>
        <mxCell id="4NK0Ishuy7uq4fyJAxaH-13" value="&lt;span style=&quot;font-size: 12px;&quot;&gt;ホームページへ戻す&lt;/span&gt;" style="whiteSpace=wrap;html=1;fontSize=18;" parent="4NK0Ishuy7uq4fyJAxaH-2" vertex="1">
          <mxGeometry x="201" y="255" width="120" height="40" as="geometry" />
        </mxCell>
        <mxCell id="4NK0Ishuy7uq4fyJAxaH-27" value="" style="edgeStyle=orthogonalEdgeStyle;rounded=0;orthogonalLoop=1;jettySize=auto;html=1;fontFamily=Helvetica;fontSize=12;" parent="4NK0Ishuy7uq4fyJAxaH-2" source="4NK0Ishuy7uq4fyJAxaH-15" target="4NK0Ishuy7uq4fyJAxaH-12" edge="1">
          <mxGeometry relative="1" as="geometry" />
        </mxCell>
        <mxCell id="4NK0Ishuy7uq4fyJAxaH-15" value="&lt;p&gt;&lt;font style=&quot;font-size: 12px;&quot;&gt;ログインボタンを押す、送信&lt;/font&gt;&lt;/p&gt;" style="whiteSpace=wrap;html=1;fontSize=18;" parent="4NK0Ishuy7uq4fyJAxaH-2" vertex="1">
          <mxGeometry x="201" y="180" width="120" height="40" as="geometry" />
        </mxCell>
        <mxCell id="4NK0Ishuy7uq4fyJAxaH-26" value="&lt;font style=&quot;font-size: 16px;&quot;&gt;ユーザー&lt;/font&gt;" style="text;html=1;align=center;verticalAlign=middle;resizable=0;points=[];autosize=1;strokeColor=none;fillColor=none;fontSize=16;fontFamily=Helvetica;" parent="4NK0Ishuy7uq4fyJAxaH-2" vertex="1">
          <mxGeometry x="224" y="2" width="80" height="20" as="geometry" />
        </mxCell>
        <mxCell id="4NK0Ishuy7uq4fyJAxaH-32" value="" style="edgeStyle=orthogonalEdgeStyle;rounded=0;orthogonalLoop=1;jettySize=auto;html=1;fontFamily=Helvetica;fontSize=15;exitX=1;exitY=0.5;exitDx=0;exitDy=0;" parent="4NK0Ishuy7uq4fyJAxaH-2" source="4NK0Ishuy7uq4fyJAxaH-33" edge="1">
          <mxGeometry relative="1" as="geometry">
            <mxPoint x="100" y="276" as="sourcePoint" />
            <mxPoint x="204" y="276" as="targetPoint" />
            <Array as="points">
              <mxPoint x="95" y="276" />
            </Array>
          </mxGeometry>
        </mxCell>
        <mxCell id="4NK0Ishuy7uq4fyJAxaH-37" value="" style="edgeStyle=orthogonalEdgeStyle;rounded=0;orthogonalLoop=1;jettySize=auto;html=1;fontFamily=Helvetica;fontSize=12;" parent="4NK0Ishuy7uq4fyJAxaH-2" source="4NK0Ishuy7uq4fyJAxaH-33" edge="1">
          <mxGeometry relative="1" as="geometry">
            <mxPoint x="200" y="121" as="targetPoint" />
            <Array as="points">
              <mxPoint x="10" y="275" />
              <mxPoint x="10" y="121" />
            </Array>
          </mxGeometry>
        </mxCell>
        <mxCell id="4NK0Ishuy7uq4fyJAxaH-33" value="" style="rhombus;fontFamily=Helvetica;fontSize=17;" parent="4NK0Ishuy7uq4fyJAxaH-2" vertex="1">
          <mxGeometry x="65" y="260" width="30" height="30" as="geometry" />
        </mxCell>
        <mxCell id="4NK0Ishuy7uq4fyJAxaH-34" value="成功" style="rounded=0;whiteSpace=wrap;html=1;fontFamily=Helvetica;fontSize=12;" parent="4NK0Ishuy7uq4fyJAxaH-2" vertex="1">
          <mxGeometry x="110" y="250" width="40" height="20" as="geometry" />
        </mxCell>
        <mxCell id="4NK0Ishuy7uq4fyJAxaH-118" value="失敗" style="rounded=0;whiteSpace=wrap;html=1;fontFamily=Helvetica;fontSize=12;" parent="4NK0Ishuy7uq4fyJAxaH-2" vertex="1">
          <mxGeometry x="60" y="94" width="40" height="20" as="geometry" />
        </mxCell>
        <mxCell id="iqObLX64YuDzYRhk15tu-2" value="" style="ellipse;fillColor=#000000;strokeColor=none;fontFamily=Helvetica;fontSize=15;" vertex="1" parent="4NK0Ishuy7uq4fyJAxaH-2">
          <mxGeometry x="246" y="41" width="30" height="30" as="geometry" />
        </mxCell>
        <mxCell id="iqObLX64YuDzYRhk15tu-5" value="" style="ellipse;html=1;shape=endState;fillColor=#000000;strokeColor=#000000;fontFamily=Helvetica;fontSize=15;" vertex="1" parent="4NK0Ishuy7uq4fyJAxaH-2">
          <mxGeometry x="249" y="340" width="30" height="30" as="geometry" />
        </mxCell>
        <mxCell id="4NK0Ishuy7uq4fyJAxaH-8" value="" style="endArrow=none;html=1;rounded=0;fontFamily=Helvetica;fontSize=21;entryX=0.5;entryY=0;entryDx=0;entryDy=0;exitX=0.5;exitY=1;exitDx=0;exitDy=0;" parent="1" source="4NK0Ishuy7uq4fyJAxaH-2" target="4NK0Ishuy7uq4fyJAxaH-2" edge="1">
          <mxGeometry width="50" height="50" relative="1" as="geometry">
            <mxPoint x="390" y="300" as="sourcePoint" />
            <mxPoint x="440" y="250" as="targetPoint" />
          </mxGeometry>
        </mxCell>
        <mxCell id="4NK0Ishuy7uq4fyJAxaH-40" value="" style="swimlane;fontFamily=Helvetica;fontSize=21;startSize=23;fontStyle=0" parent="1" vertex="1">
          <mxGeometry x="40" y="616" width="362" height="380" as="geometry" />
        </mxCell>
        <mxCell id="4NK0Ishuy7uq4fyJAxaH-41" value="&lt;font&gt;&lt;font style=&quot;font-size: 15px;&quot;&gt;システム&lt;/font&gt;&lt;/font&gt;" style="text;html=1;align=center;verticalAlign=middle;resizable=0;points=[];autosize=1;strokeColor=none;fillColor=none;fontSize=21;fontFamily=Helvetica;" parent="4NK0Ishuy7uq4fyJAxaH-40" vertex="1">
          <mxGeometry x="50" y="-5" width="80" height="30" as="geometry" />
        </mxCell>
        <mxCell id="4NK0Ishuy7uq4fyJAxaH-42" value="" style="edgeStyle=orthogonalEdgeStyle;rounded=0;orthogonalLoop=1;jettySize=auto;html=1;fontFamily=Helvetica;fontSize=11;" parent="4NK0Ishuy7uq4fyJAxaH-40" source="4NK0Ishuy7uq4fyJAxaH-43" target="4NK0Ishuy7uq4fyJAxaH-51" edge="1">
          <mxGeometry relative="1" as="geometry" />
        </mxCell>
        <mxCell id="4NK0Ishuy7uq4fyJAxaH-43" value="&lt;font style=&quot;font-size: 11px;&quot;&gt;ユーザー名と&lt;br&gt;パスワードを入力&lt;/font&gt;" style="rounded=0;whiteSpace=wrap;html=1;fontFamily=Helvetica;fontSize=18;" parent="4NK0Ishuy7uq4fyJAxaH-40" vertex="1">
          <mxGeometry x="203" y="100" width="120" height="40" as="geometry" />
        </mxCell>
        <mxCell id="4NK0Ishuy7uq4fyJAxaH-44" value="" style="edgeStyle=orthogonalEdgeStyle;rounded=0;orthogonalLoop=1;jettySize=auto;html=1;fontFamily=Helvetica;fontSize=18;entryX=0.5;entryY=0;entryDx=0;entryDy=0;" parent="4NK0Ishuy7uq4fyJAxaH-40" target="4NK0Ishuy7uq4fyJAxaH-43" edge="1">
          <mxGeometry relative="1" as="geometry">
            <mxPoint x="264" y="70" as="sourcePoint" />
          </mxGeometry>
        </mxCell>
        <mxCell id="4NK0Ishuy7uq4fyJAxaH-46" value="" style="edgeStyle=orthogonalEdgeStyle;rounded=0;orthogonalLoop=1;jettySize=auto;html=1;fontFamily=Helvetica;fontSize=15;entryX=0;entryY=0.5;entryDx=0;entryDy=0;" parent="4NK0Ishuy7uq4fyJAxaH-40" source="4NK0Ishuy7uq4fyJAxaH-47" target="4NK0Ishuy7uq4fyJAxaH-49" edge="1">
          <mxGeometry relative="1" as="geometry">
            <mxPoint x="80" y="290" as="targetPoint" />
            <Array as="points">
              <mxPoint x="82" y="290" />
            </Array>
          </mxGeometry>
        </mxCell>
        <mxCell id="4NK0Ishuy7uq4fyJAxaH-47" value="&lt;font style=&quot;font-size: 13px;&quot;&gt;データを追加&lt;/font&gt;" style="html=1;fontFamily=Helvetica;fontSize=18;" parent="4NK0Ishuy7uq4fyJAxaH-40" vertex="1">
          <mxGeometry x="20" y="180" width="120" height="40" as="geometry" />
        </mxCell>
        <mxCell id="4NK0Ishuy7uq4fyJAxaH-48" value="" style="edgeStyle=orthogonalEdgeStyle;rounded=0;orthogonalLoop=1;jettySize=auto;html=1;fontFamily=Helvetica;fontSize=12;" parent="4NK0Ishuy7uq4fyJAxaH-40" edge="1">
          <mxGeometry relative="1" as="geometry">
            <mxPoint x="264.5" y="340" as="targetPoint" />
            <mxPoint x="263" y="311" as="sourcePoint" />
          </mxGeometry>
        </mxCell>
        <mxCell id="4NK0Ishuy7uq4fyJAxaH-49" value="&lt;span style=&quot;font-size: 12px;&quot;&gt;ホームページへ戻す&lt;/span&gt;" style="whiteSpace=wrap;html=1;fontSize=18;" parent="4NK0Ishuy7uq4fyJAxaH-40" vertex="1">
          <mxGeometry x="203" y="271" width="120" height="40" as="geometry" />
        </mxCell>
        <mxCell id="4NK0Ishuy7uq4fyJAxaH-50" value="" style="edgeStyle=orthogonalEdgeStyle;rounded=0;orthogonalLoop=1;jettySize=auto;html=1;fontFamily=Helvetica;fontSize=12;" parent="4NK0Ishuy7uq4fyJAxaH-40" source="4NK0Ishuy7uq4fyJAxaH-51" target="4NK0Ishuy7uq4fyJAxaH-47" edge="1">
          <mxGeometry relative="1" as="geometry" />
        </mxCell>
        <mxCell id="4NK0Ishuy7uq4fyJAxaH-51" value="&lt;p&gt;&lt;font style=&quot;font-size: 12px;&quot;&gt;ボタンを押す、送信&lt;/font&gt;&lt;/p&gt;" style="whiteSpace=wrap;html=1;fontSize=18;" parent="4NK0Ishuy7uq4fyJAxaH-40" vertex="1">
          <mxGeometry x="203" y="180" width="120" height="40" as="geometry" />
        </mxCell>
        <mxCell id="4NK0Ishuy7uq4fyJAxaH-53" value="&lt;font style=&quot;font-size: 16px;&quot;&gt;ユーザー&lt;/font&gt;" style="text;html=1;align=center;verticalAlign=middle;resizable=0;points=[];autosize=1;strokeColor=none;fillColor=none;fontSize=16;fontFamily=Helvetica;" parent="4NK0Ishuy7uq4fyJAxaH-40" vertex="1">
          <mxGeometry x="224" y="2" width="80" height="20" as="geometry" />
        </mxCell>
        <mxCell id="4NK0Ishuy7uq4fyJAxaH-162" value="" style="ellipse;html=1;shape=endState;fillColor=#000000;strokeColor=#000000;fontFamily=Helvetica;fontSize=12;" parent="4NK0Ishuy7uq4fyJAxaH-40" vertex="1">
          <mxGeometry x="249" y="340" width="30" height="30" as="geometry" />
        </mxCell>
        <mxCell id="iqObLX64YuDzYRhk15tu-12" value="" style="ellipse;fillColor=#000000;strokeColor=none;fontFamily=Helvetica;fontSize=15;" vertex="1" parent="4NK0Ishuy7uq4fyJAxaH-40">
          <mxGeometry x="248" y="44" width="30" height="30" as="geometry" />
        </mxCell>
        <mxCell id="4NK0Ishuy7uq4fyJAxaH-59" value="" style="endArrow=none;html=1;rounded=0;fontFamily=Helvetica;fontSize=21;entryX=0.5;entryY=0;entryDx=0;entryDy=0;exitX=0.5;exitY=1;exitDx=0;exitDy=0;" parent="1" source="4NK0Ishuy7uq4fyJAxaH-40" target="4NK0Ishuy7uq4fyJAxaH-40" edge="1">
          <mxGeometry width="50" height="50" relative="1" as="geometry">
            <mxPoint x="400" y="436" as="sourcePoint" />
            <mxPoint x="450" y="386" as="targetPoint" />
          </mxGeometry>
        </mxCell>
        <mxCell id="4NK0Ishuy7uq4fyJAxaH-98" value="" style="swimlane;fontFamily=Helvetica;fontSize=21;startSize=23;fontStyle=0" parent="1" vertex="1">
          <mxGeometry x="440" y="39" width="360" height="531" as="geometry" />
        </mxCell>
        <mxCell id="4NK0Ishuy7uq4fyJAxaH-99" value="&lt;font&gt;&lt;font style=&quot;font-size: 15px;&quot;&gt;システム&lt;/font&gt;&lt;/font&gt;" style="text;html=1;align=center;verticalAlign=middle;resizable=0;points=[];autosize=1;strokeColor=none;fillColor=none;fontSize=21;fontFamily=Helvetica;" parent="4NK0Ishuy7uq4fyJAxaH-98" vertex="1">
          <mxGeometry x="50" y="-5" width="80" height="30" as="geometry" />
        </mxCell>
        <mxCell id="4NK0Ishuy7uq4fyJAxaH-102" value="" style="edgeStyle=orthogonalEdgeStyle;rounded=0;orthogonalLoop=1;jettySize=auto;html=1;fontFamily=Helvetica;fontSize=18;entryX=0.5;entryY=0;entryDx=0;entryDy=0;" parent="4NK0Ishuy7uq4fyJAxaH-98" edge="1">
          <mxGeometry relative="1" as="geometry">
            <mxPoint x="264" y="100" as="targetPoint" />
            <mxPoint x="264" y="61" as="sourcePoint" />
          </mxGeometry>
        </mxCell>
        <mxCell id="4NK0Ishuy7uq4fyJAxaH-145" value="" style="edgeStyle=orthogonalEdgeStyle;rounded=0;orthogonalLoop=1;jettySize=auto;html=1;fontFamily=Helvetica;fontSize=12;" parent="4NK0Ishuy7uq4fyJAxaH-98" edge="1">
          <mxGeometry relative="1" as="geometry">
            <mxPoint x="264" y="129" as="sourcePoint" />
            <mxPoint x="264" y="174" as="targetPoint" />
          </mxGeometry>
        </mxCell>
        <mxCell id="4NK0Ishuy7uq4fyJAxaH-107" value="&lt;font style=&quot;font-size: 12px;&quot;&gt;ログイン成功&lt;/font&gt;" style="whiteSpace=wrap;html=1;fontSize=18;" parent="4NK0Ishuy7uq4fyJAxaH-98" vertex="1">
          <mxGeometry x="200" y="96" width="124" height="40" as="geometry" />
        </mxCell>
        <mxCell id="4NK0Ishuy7uq4fyJAxaH-111" value="&lt;font style=&quot;font-size: 16px;&quot;&gt;ユーザー&lt;/font&gt;" style="text;html=1;align=center;verticalAlign=middle;resizable=0;points=[];autosize=1;strokeColor=none;fillColor=none;fontSize=16;fontFamily=Helvetica;" parent="4NK0Ishuy7uq4fyJAxaH-98" vertex="1">
          <mxGeometry x="224" y="2" width="80" height="20" as="geometry" />
        </mxCell>
        <mxCell id="4NK0Ishuy7uq4fyJAxaH-144" value="" style="edgeStyle=orthogonalEdgeStyle;rounded=0;orthogonalLoop=1;jettySize=auto;html=1;fontFamily=Helvetica;fontSize=12;" parent="4NK0Ishuy7uq4fyJAxaH-98" source="4NK0Ishuy7uq4fyJAxaH-122" target="4NK0Ishuy7uq4fyJAxaH-143" edge="1">
          <mxGeometry relative="1" as="geometry" />
        </mxCell>
        <mxCell id="4NK0Ishuy7uq4fyJAxaH-122" value="編集ボタンを押す" style="whiteSpace=wrap;html=1;fontSize=12;align=center;" parent="4NK0Ishuy7uq4fyJAxaH-98" vertex="1">
          <mxGeometry x="200" y="175" width="121" height="45" as="geometry" />
        </mxCell>
        <mxCell id="4NK0Ishuy7uq4fyJAxaH-148" value="" style="edgeStyle=orthogonalEdgeStyle;rounded=0;orthogonalLoop=1;jettySize=auto;html=1;fontFamily=Helvetica;fontSize=12;" parent="4NK0Ishuy7uq4fyJAxaH-98" source="4NK0Ishuy7uq4fyJAxaH-143" target="4NK0Ishuy7uq4fyJAxaH-147" edge="1">
          <mxGeometry relative="1" as="geometry">
            <Array as="points">
              <mxPoint x="70" y="271" />
            </Array>
          </mxGeometry>
        </mxCell>
        <mxCell id="4NK0Ishuy7uq4fyJAxaH-143" value="編集ページにリンク" style="whiteSpace=wrap;html=1;" parent="4NK0Ishuy7uq4fyJAxaH-98" vertex="1">
          <mxGeometry x="10" y="175.5" width="120" height="44.5" as="geometry" />
        </mxCell>
        <mxCell id="4NK0Ishuy7uq4fyJAxaH-152" value="" style="edgeStyle=orthogonalEdgeStyle;rounded=0;orthogonalLoop=1;jettySize=auto;html=1;fontFamily=Helvetica;fontSize=12;" parent="4NK0Ishuy7uq4fyJAxaH-98" source="4NK0Ishuy7uq4fyJAxaH-147" target="4NK0Ishuy7uq4fyJAxaH-151" edge="1">
          <mxGeometry relative="1" as="geometry" />
        </mxCell>
        <mxCell id="4NK0Ishuy7uq4fyJAxaH-147" value="編集ページを表示" style="whiteSpace=wrap;html=1;" parent="4NK0Ishuy7uq4fyJAxaH-98" vertex="1">
          <mxGeometry x="200" y="251" width="120" height="39" as="geometry" />
        </mxCell>
        <mxCell id="4NK0Ishuy7uq4fyJAxaH-155" value="" style="edgeStyle=orthogonalEdgeStyle;rounded=0;orthogonalLoop=1;jettySize=auto;html=1;fontFamily=Helvetica;fontSize=12;" parent="4NK0Ishuy7uq4fyJAxaH-98" source="4NK0Ishuy7uq4fyJAxaH-151" target="4NK0Ishuy7uq4fyJAxaH-154" edge="1">
          <mxGeometry relative="1" as="geometry" />
        </mxCell>
        <mxCell id="4NK0Ishuy7uq4fyJAxaH-151" value="&lt;span style=&quot;white-space: pre;&quot;&gt;&lt;span style=&quot;white-space: pre;&quot;&gt;内容を入力&lt;/span&gt;&lt;/span&gt;" style="whiteSpace=wrap;html=1;" parent="4NK0Ishuy7uq4fyJAxaH-98" vertex="1">
          <mxGeometry x="200" y="331" width="120" height="39" as="geometry" />
        </mxCell>
        <mxCell id="4NK0Ishuy7uq4fyJAxaH-157" value="" style="edgeStyle=orthogonalEdgeStyle;rounded=0;orthogonalLoop=1;jettySize=auto;html=1;fontFamily=Helvetica;fontSize=12;entryX=0;entryY=0.5;entryDx=0;entryDy=0;" parent="4NK0Ishuy7uq4fyJAxaH-98" target="4NK0Ishuy7uq4fyJAxaH-156" edge="1">
          <mxGeometry relative="1" as="geometry">
            <mxPoint x="65" y="360" as="sourcePoint" />
            <mxPoint x="195" y="421" as="targetPoint" />
            <Array as="points">
              <mxPoint x="65" y="431" />
            </Array>
          </mxGeometry>
        </mxCell>
        <mxCell id="4NK0Ishuy7uq4fyJAxaH-154" value="データを追加" style="whiteSpace=wrap;html=1;" parent="4NK0Ishuy7uq4fyJAxaH-98" vertex="1">
          <mxGeometry x="10" y="331" width="120" height="39" as="geometry" />
        </mxCell>
        <mxCell id="4NK0Ishuy7uq4fyJAxaH-160" value="" style="edgeStyle=orthogonalEdgeStyle;rounded=0;orthogonalLoop=1;jettySize=auto;html=1;fontFamily=Helvetica;fontSize=12;" parent="4NK0Ishuy7uq4fyJAxaH-98" source="4NK0Ishuy7uq4fyJAxaH-156" target="4NK0Ishuy7uq4fyJAxaH-159" edge="1">
          <mxGeometry relative="1" as="geometry" />
        </mxCell>
        <mxCell id="4NK0Ishuy7uq4fyJAxaH-156" value="編集成功" style="whiteSpace=wrap;html=1;" parent="4NK0Ishuy7uq4fyJAxaH-98" vertex="1">
          <mxGeometry x="200" y="411" width="120" height="40" as="geometry" />
        </mxCell>
        <mxCell id="4NK0Ishuy7uq4fyJAxaH-158" style="edgeStyle=orthogonalEdgeStyle;rounded=0;orthogonalLoop=1;jettySize=auto;html=1;exitX=0.5;exitY=1;exitDx=0;exitDy=0;fontFamily=Helvetica;fontSize=12;" parent="4NK0Ishuy7uq4fyJAxaH-98" source="4NK0Ishuy7uq4fyJAxaH-156" target="4NK0Ishuy7uq4fyJAxaH-156" edge="1">
          <mxGeometry relative="1" as="geometry" />
        </mxCell>
        <mxCell id="4NK0Ishuy7uq4fyJAxaH-159" value="" style="ellipse;html=1;shape=endState;fillColor=#000000;strokeColor=#000000;fontFamily=Helvetica;fontSize=12;" parent="4NK0Ishuy7uq4fyJAxaH-98" vertex="1">
          <mxGeometry x="245" y="491" width="30" height="30" as="geometry" />
        </mxCell>
        <mxCell id="iqObLX64YuDzYRhk15tu-8" value="" style="ellipse;fillColor=#000000;strokeColor=none;fontFamily=Helvetica;fontSize=15;" vertex="1" parent="4NK0Ishuy7uq4fyJAxaH-98">
          <mxGeometry x="249" y="41" width="30" height="30" as="geometry" />
        </mxCell>
        <mxCell id="4NK0Ishuy7uq4fyJAxaH-117" value="" style="endArrow=none;html=1;rounded=0;fontFamily=Helvetica;fontSize=21;entryX=0.5;entryY=0;entryDx=0;entryDy=0;exitX=0.5;exitY=1;exitDx=0;exitDy=0;" parent="1" source="4NK0Ishuy7uq4fyJAxaH-98" target="4NK0Ishuy7uq4fyJAxaH-98" edge="1">
          <mxGeometry width="50" height="50" relative="1" as="geometry">
            <mxPoint x="620" y="420" as="sourcePoint" />
            <mxPoint x="820" y="290" as="targetPoint" />
          </mxGeometry>
        </mxCell>
        <mxCell id="4NK0Ishuy7uq4fyJAxaH-163" value="" style="swimlane;fontFamily=Helvetica;fontSize=21;startSize=23;fontStyle=0" parent="1" vertex="1">
          <mxGeometry x="440" y="616" width="360" height="531" as="geometry" />
        </mxCell>
        <mxCell id="4NK0Ishuy7uq4fyJAxaH-164" value="&lt;font&gt;&lt;font style=&quot;font-size: 15px;&quot;&gt;システム&lt;/font&gt;&lt;/font&gt;" style="text;html=1;align=center;verticalAlign=middle;resizable=0;points=[];autosize=1;strokeColor=none;fillColor=none;fontSize=21;fontFamily=Helvetica;" parent="4NK0Ishuy7uq4fyJAxaH-163" vertex="1">
          <mxGeometry x="50" y="-5" width="80" height="30" as="geometry" />
        </mxCell>
        <mxCell id="4NK0Ishuy7uq4fyJAxaH-165" value="" style="edgeStyle=orthogonalEdgeStyle;rounded=0;orthogonalLoop=1;jettySize=auto;html=1;fontFamily=Helvetica;fontSize=18;entryX=0.5;entryY=0;entryDx=0;entryDy=0;" parent="4NK0Ishuy7uq4fyJAxaH-163" edge="1">
          <mxGeometry relative="1" as="geometry">
            <mxPoint x="264" y="100" as="targetPoint" />
            <mxPoint x="264" y="61" as="sourcePoint" />
          </mxGeometry>
        </mxCell>
        <mxCell id="4NK0Ishuy7uq4fyJAxaH-167" value="" style="edgeStyle=orthogonalEdgeStyle;rounded=0;orthogonalLoop=1;jettySize=auto;html=1;fontFamily=Helvetica;fontSize=12;" parent="4NK0Ishuy7uq4fyJAxaH-163" edge="1">
          <mxGeometry relative="1" as="geometry">
            <mxPoint x="264" y="129" as="sourcePoint" />
            <mxPoint x="264" y="174" as="targetPoint" />
          </mxGeometry>
        </mxCell>
        <mxCell id="4NK0Ishuy7uq4fyJAxaH-168" value="&lt;font style=&quot;font-size: 12px;&quot;&gt;ログイン成功&lt;/font&gt;" style="whiteSpace=wrap;html=1;fontSize=18;" parent="4NK0Ishuy7uq4fyJAxaH-163" vertex="1">
          <mxGeometry x="200" y="102" width="124" height="40" as="geometry" />
        </mxCell>
        <mxCell id="4NK0Ishuy7uq4fyJAxaH-169" value="&lt;font style=&quot;font-size: 16px;&quot;&gt;ユーザー&lt;/font&gt;" style="text;html=1;align=center;verticalAlign=middle;resizable=0;points=[];autosize=1;strokeColor=none;fillColor=none;fontSize=16;fontFamily=Helvetica;" parent="4NK0Ishuy7uq4fyJAxaH-163" vertex="1">
          <mxGeometry x="224" y="2" width="80" height="20" as="geometry" />
        </mxCell>
        <mxCell id="4NK0Ishuy7uq4fyJAxaH-170" value="" style="edgeStyle=orthogonalEdgeStyle;rounded=0;orthogonalLoop=1;jettySize=auto;html=1;fontFamily=Helvetica;fontSize=12;" parent="4NK0Ishuy7uq4fyJAxaH-163" source="4NK0Ishuy7uq4fyJAxaH-171" target="4NK0Ishuy7uq4fyJAxaH-173" edge="1">
          <mxGeometry relative="1" as="geometry" />
        </mxCell>
        <mxCell id="4NK0Ishuy7uq4fyJAxaH-171" value="更新ボタンを押す" style="whiteSpace=wrap;html=1;fontSize=12;align=center;" parent="4NK0Ishuy7uq4fyJAxaH-163" vertex="1">
          <mxGeometry x="200" y="175" width="121" height="45" as="geometry" />
        </mxCell>
        <mxCell id="4NK0Ishuy7uq4fyJAxaH-172" value="" style="edgeStyle=orthogonalEdgeStyle;rounded=0;orthogonalLoop=1;jettySize=auto;html=1;fontFamily=Helvetica;fontSize=12;" parent="4NK0Ishuy7uq4fyJAxaH-163" source="4NK0Ishuy7uq4fyJAxaH-173" target="4NK0Ishuy7uq4fyJAxaH-175" edge="1">
          <mxGeometry relative="1" as="geometry">
            <Array as="points">
              <mxPoint x="70" y="271" />
            </Array>
          </mxGeometry>
        </mxCell>
        <mxCell id="4NK0Ishuy7uq4fyJAxaH-173" value="更新ページにリンク" style="whiteSpace=wrap;html=1;" parent="4NK0Ishuy7uq4fyJAxaH-163" vertex="1">
          <mxGeometry x="10" y="175.5" width="120" height="44.5" as="geometry" />
        </mxCell>
        <mxCell id="4NK0Ishuy7uq4fyJAxaH-174" value="" style="edgeStyle=orthogonalEdgeStyle;rounded=0;orthogonalLoop=1;jettySize=auto;html=1;fontFamily=Helvetica;fontSize=12;" parent="4NK0Ishuy7uq4fyJAxaH-163" source="4NK0Ishuy7uq4fyJAxaH-175" target="4NK0Ishuy7uq4fyJAxaH-177" edge="1">
          <mxGeometry relative="1" as="geometry" />
        </mxCell>
        <mxCell id="4NK0Ishuy7uq4fyJAxaH-175" value="更新ページを表示" style="whiteSpace=wrap;html=1;" parent="4NK0Ishuy7uq4fyJAxaH-163" vertex="1">
          <mxGeometry x="200" y="251" width="120" height="39" as="geometry" />
        </mxCell>
        <mxCell id="4NK0Ishuy7uq4fyJAxaH-176" value="" style="edgeStyle=orthogonalEdgeStyle;rounded=0;orthogonalLoop=1;jettySize=auto;html=1;fontFamily=Helvetica;fontSize=12;" parent="4NK0Ishuy7uq4fyJAxaH-163" source="4NK0Ishuy7uq4fyJAxaH-177" target="4NK0Ishuy7uq4fyJAxaH-179" edge="1">
          <mxGeometry relative="1" as="geometry" />
        </mxCell>
        <mxCell id="4NK0Ishuy7uq4fyJAxaH-177" value="&lt;span style=&quot;white-space: pre;&quot;&gt;&lt;span style=&quot;white-space: pre;&quot;&gt;内容を入力&lt;/span&gt;&lt;/span&gt;" style="whiteSpace=wrap;html=1;" parent="4NK0Ishuy7uq4fyJAxaH-163" vertex="1">
          <mxGeometry x="200" y="331" width="120" height="39" as="geometry" />
        </mxCell>
        <mxCell id="4NK0Ishuy7uq4fyJAxaH-178" value="" style="edgeStyle=orthogonalEdgeStyle;rounded=0;orthogonalLoop=1;jettySize=auto;html=1;fontFamily=Helvetica;fontSize=12;entryX=0;entryY=0.5;entryDx=0;entryDy=0;" parent="4NK0Ishuy7uq4fyJAxaH-163" target="4NK0Ishuy7uq4fyJAxaH-181" edge="1">
          <mxGeometry relative="1" as="geometry">
            <mxPoint x="65" y="360" as="sourcePoint" />
            <mxPoint x="195" y="421" as="targetPoint" />
            <Array as="points">
              <mxPoint x="65" y="431" />
            </Array>
          </mxGeometry>
        </mxCell>
        <mxCell id="4NK0Ishuy7uq4fyJAxaH-179" value="データを更新" style="whiteSpace=wrap;html=1;" parent="4NK0Ishuy7uq4fyJAxaH-163" vertex="1">
          <mxGeometry x="10" y="331" width="120" height="39" as="geometry" />
        </mxCell>
        <mxCell id="4NK0Ishuy7uq4fyJAxaH-180" value="" style="edgeStyle=orthogonalEdgeStyle;rounded=0;orthogonalLoop=1;jettySize=auto;html=1;fontFamily=Helvetica;fontSize=12;" parent="4NK0Ishuy7uq4fyJAxaH-163" source="4NK0Ishuy7uq4fyJAxaH-181" target="4NK0Ishuy7uq4fyJAxaH-183" edge="1">
          <mxGeometry relative="1" as="geometry" />
        </mxCell>
        <mxCell id="4NK0Ishuy7uq4fyJAxaH-181" value="更新成功" style="whiteSpace=wrap;html=1;" parent="4NK0Ishuy7uq4fyJAxaH-163" vertex="1">
          <mxGeometry x="200" y="411" width="120" height="40" as="geometry" />
        </mxCell>
        <mxCell id="4NK0Ishuy7uq4fyJAxaH-182" style="edgeStyle=orthogonalEdgeStyle;rounded=0;orthogonalLoop=1;jettySize=auto;html=1;exitX=0.5;exitY=1;exitDx=0;exitDy=0;fontFamily=Helvetica;fontSize=12;" parent="4NK0Ishuy7uq4fyJAxaH-163" source="4NK0Ishuy7uq4fyJAxaH-181" target="4NK0Ishuy7uq4fyJAxaH-181" edge="1">
          <mxGeometry relative="1" as="geometry" />
        </mxCell>
        <mxCell id="4NK0Ishuy7uq4fyJAxaH-183" value="" style="ellipse;html=1;shape=endState;fillColor=#000000;strokeColor=#000000;fontFamily=Helvetica;fontSize=12;" parent="4NK0Ishuy7uq4fyJAxaH-163" vertex="1">
          <mxGeometry x="245" y="491" width="30" height="30" as="geometry" />
        </mxCell>
        <mxCell id="4NK0Ishuy7uq4fyJAxaH-185" value="" style="endArrow=none;html=1;rounded=0;fontFamily=Helvetica;fontSize=21;entryX=0.5;entryY=0;entryDx=0;entryDy=0;exitX=0.5;exitY=1;exitDx=0;exitDy=0;" parent="4NK0Ishuy7uq4fyJAxaH-163" edge="1">
          <mxGeometry width="50" height="50" relative="1" as="geometry">
            <mxPoint x="179.5" y="531" as="sourcePoint" />
            <mxPoint x="179.5" as="targetPoint" />
          </mxGeometry>
        </mxCell>
        <mxCell id="iqObLX64YuDzYRhk15tu-14" value="" style="ellipse;fillColor=#000000;strokeColor=none;fontFamily=Helvetica;fontSize=15;" vertex="1" parent="4NK0Ishuy7uq4fyJAxaH-163">
          <mxGeometry x="249" y="44" width="30" height="30" as="geometry" />
        </mxCell>
        <mxCell id="iqObLX64YuDzYRhk15tu-1" value="&lt;font style=&quot;font-size: 15px;&quot;&gt;Login&lt;/font&gt;" style="rounded=0;whiteSpace=wrap;html=1;fontFamily=Helvetica;fontSize=12;" vertex="1" parent="1">
          <mxGeometry x="160" y="20" width="120" height="19" as="geometry" />
        </mxCell>
        <mxCell id="iqObLX64YuDzYRhk15tu-9" value="&lt;span style=&quot;font-size: 15px;&quot;&gt;Editor&lt;/span&gt;" style="rounded=0;whiteSpace=wrap;html=1;fontFamily=Helvetica;fontSize=12;" vertex="1" parent="1">
          <mxGeometry x="560" y="20" width="120" height="19" as="geometry" />
        </mxCell>
        <mxCell id="iqObLX64YuDzYRhk15tu-10" value="&lt;span style=&quot;font-size: 15px;&quot;&gt;Register&lt;/span&gt;" style="rounded=0;whiteSpace=wrap;html=1;fontFamily=Helvetica;fontSize=12;" vertex="1" parent="1">
          <mxGeometry x="159" y="597" width="120" height="19" as="geometry" />
        </mxCell>
        <mxCell id="iqObLX64YuDzYRhk15tu-11" value="&lt;span style=&quot;font-size: 15px;&quot;&gt;Update&lt;/span&gt;" style="rounded=0;whiteSpace=wrap;html=1;fontFamily=Helvetica;fontSize=12;" vertex="1" parent="1">
          <mxGeometry x="560" y="597" width="120" height="19" as="geometry" />
        </mxCell>
      </root>
    </mxGraphModel>
  </diagram>
</mxfile>
